HIERARCHY
ROOT RootJoint
{
    OFFSET   0.000000   0.000000   0.000000
    CHANNELS 6 Xposition Yposition Zposition Xrotation Yrotation Zrotation
    JOINT pelvis_lowerback
    {
        OFFSET   0.000000   0.093605   0.000000
        CHANNELS 3 Xrotation Yrotation Zrotation
        JOINT lowerback_torso
        {
            OFFSET   0.000000   0.100000   0.000000
            CHANNELS 3 Xrotation Yrotation Zrotation
            JOINT torso_head
            {
                OFFSET   0.000000   0.282350   0.000000
                CHANNELS 3 Xrotation Yrotation Zrotation
                End Site
                {
                    OFFSET   0.000000   0.192650   0.000000
                }
            }
            JOINT rTorso_Clavicle
            {
                OFFSET  -0.001000   0.157500   0.000000
                CHANNELS 3 Xrotation Yrotation Zrotation
                JOINT rShoulder
                {
                    OFFSET  -0.117647   0.000000   0.000000
                    CHANNELS 3 Xrotation Yrotation Zrotation
                    JOINT rElbow
                    {
                        OFFSET  -0.245000   0.000000   0.000000
                        CHANNELS 3 Xrotation Yrotation Zrotation
                        JOINT rWrist
                        {
                            OFFSET  -0.240000   0.000000   0.000000
                            CHANNELS 3 Xrotation Yrotation Zrotation
                            End Site
                            {
                                OFFSET  -0.116353  -0.002500   0.000000
                            }
                        }
                    }
                }
            }
            JOINT lTorso_Clavicle
            {
                OFFSET   0.001000   0.157500   0.000000
                CHANNELS 3 Xrotation Yrotation Zrotation
                JOINT lShoulder
                {
                    OFFSET   0.117647   0.000000   0.000000
                    CHANNELS 3 Xrotation Yrotation Zrotation
                    JOINT lElbow
                    {
                        OFFSET   0.245000   0.000000   0.000000
                        CHANNELS 3 Xrotation Yrotation Zrotation
                        JOINT lWrist
                        {
                            OFFSET   0.240000   0.000000   0.000000
                            CHANNELS 3 Xrotation Yrotation Zrotation
                            End Site
                            {
                                OFFSET   0.116353  -0.002500   0.000000
                            }
                        }
                    }
                }
            }
        }
    }
    JOINT rHip
    {
        OFFSET  -0.100000  -0.051395   0.000000
        CHANNELS 3 Xrotation Yrotation Zrotation
        JOINT rKnee
        {
            OFFSET   0.000000  -0.410000   0.000000
            CHANNELS 3 Xrotation Yrotation Zrotation
            JOINT rAnkle
            {
                OFFSET   0.000000  -0.390000   0.000000
                CHANNELS 3 Xrotation Yrotation Zrotation
                JOINT rToeJoint
                {
                    OFFSET   0.000000  -0.050000   0.130000
                    CHANNELS 3 Xrotation Yrotation Zrotation
                    End Site
                    {
                        OFFSET  -0.010000   0.002000   0.060000
                    }
                }
            }
        }
    }
    JOINT lHip
    {
        OFFSET   0.100000  -0.051395   0.000000
        CHANNELS 3 Xrotation Yrotation Zrotation
        JOINT lKnee
        {
            OFFSET   0.000000  -0.410000   0.000000
            CHANNELS 3 Xrotation Yrotation Zrotation
            JOINT lAnkle
            {
                OFFSET   0.000000  -0.390000   0.000000
                CHANNELS 3 Xrotation Yrotation Zrotation
                JOINT lToeJoint
                {
                    OFFSET   0.000000  -0.050000   0.130000
                    CHANNELS 3 Xrotation Yrotation Zrotation
                    End Site
                    {
                        OFFSET   0.010000   0.002000   0.060000
                    }
                }
            }
        }
    }
}
MOTION
Frames: 5
Frame Time:   0.008333
 -2.275449   0.932958   4.090464 -11.849917  12.241023  -7.105068  17.475941  -4.769924   3.021670   4.279992  -4.819474   4.151076   1.940588  -1.596601   1.702751   2.545898   2.938286   2.878344   3.802488   9.044587  42.692700  -0.032734  28.378105  -0.036039   1.016738   0.344415  -1.039318  -2.565882  -5.775758   3.677128 -12.892828 -13.133755 -31.274049  -0.078150 -61.405860  -0.053120  -1.108522   0.002609   4.183278 -48.461951  -4.240624  -8.393450 100.110440   0.112556   0.032194   9.858813   3.068670   6.988721  -6.379514   0.021227   0.001196   3.001303  -4.632464   9.578101  20.563582  -0.000943  -0.011893  -6.012150   0.052179  -0.709285  -8.190382  -0.006477  -0.001982
 -2.275184   0.933381   4.091159 -11.898072  13.170055  -7.284241  17.870055  -5.354155   3.234920   4.183631  -5.344631   4.416566   1.928933  -1.065302   1.505929   2.975992   2.258044   2.847411   5.043384   8.342760  43.334139  -0.037934  27.055930  -0.028445   0.973088   0.170636  -1.245226  -3.081061  -6.714894   3.896196 -14.542028 -14.615088 -31.388063  -0.083611 -63.192854  -0.059627  -1.176068  -0.210935   4.370926 -50.445883  -4.116283  -8.326984 101.785921   0.101126   0.032237   9.473517   2.941399   7.218820  -6.028552   0.018675   0.002581   3.271178  -5.134686   9.948197  20.240432  -0.000742  -0.010648  -6.144300  -0.651756  -0.711365  -7.693149  -0.005121  -0.002869
 -2.275004   0.933729   4.091755 -11.893504  14.075542  -7.442728  18.268127  -5.909579   3.430262   4.115264  -5.854293   4.678316   1.917953  -0.555513   1.306190   3.430608   1.601352   2.863962   6.249093   7.688425  44.005605  -0.042602  25.805790  -0.021429   0.945614  -0.073546  -1.254834  -3.585949  -7.633218   4.123479 -16.126171 -16.035886 -31.538764  -0.085059 -64.893380  -0.062453  -1.234805  -0.557961   4.584350 -52.340490  -3.985956  -8.250169 103.095403   0.089557   0.031226   9.100357   2.818953   7.432441  -5.738821   0.016399   0.003541   3.491839  -5.621639  10.286398  19.854742  -0.000588  -0.009858  -6.272114  -1.324235  -0.721592  -7.121354  -0.004049  -0.003648
 -2.274853   0.933983   4.092321 -11.865712  14.943925  -7.572189  18.674836  -6.445361   3.618362   4.081522  -6.352652   4.936602   1.913768  -0.078275   1.111125   3.878720   0.973028   2.918867   7.397260   7.083275  44.675873  -0.046042  24.631955  -0.015656   0.922436  -0.354542  -1.166100  -4.064768  -8.505290   4.344861 -17.629488 -17.370912 -31.714083  -0.082769 -66.491645  -0.061811  -1.283935  -0.962961   4.803088 -54.132944  -3.857645  -8.169345 104.220414   0.078760   0.029893   8.747392   2.702596   7.630908  -5.484676   0.014364   0.004186   3.683640  -6.077595  10.585016  19.471927  -0.000478  -0.009202  -6.410211  -1.954520  -0.738300  -6.543189  -0.003214  -0.004103
 -2.274703   0.934153   4.092876 -11.820693  15.764606  -7.674074  19.083734  -6.956605   3.807557   4.077299  -6.831679   5.192034   1.916153   0.366994   0.924577   4.311473   0.374826   2.997575   8.484183   6.525427  45.332276  -0.048226  23.532439  -0.010998   0.901614  -0.648839  -1.028321  -4.510861  -9.322517   4.552251 -19.048654 -18.616000 -31.912045  -0.077507 -67.988872  -0.058436  -1.326777  -1.383138   5.013752 -55.819394  -3.739440  -8.080208 105.232264   0.068971   0.028522   8.416141   2.592905   7.815578  -5.257221   0.012531   0.004588   3.851257  -6.502991  10.843079  19.098204  -0.000397  -0.008596  -6.554365  -2.545667  -0.760168  -5.972035  -0.002562  -0.004341
